<svg xmlns="http://www.w3.org/2000/svg" viewBox="0 0 400 400">
  <g fill-rule="evenodd">
    <path fill="#fcfcfc" d="M0 200v200h400V0H0v200m75.094-53.582c1.205.973 1.557 2.881.757 4.102-2.268 3.461-7.719.458-5.719-3.15.965-1.742 3.403-2.21 4.962-.952m18.946 3.521c.875.782 1.051 1.182 1.051 2.395 0 2.965-3.443 4.201-5.508 1.976-2.82-3.039 1.36-7.139 4.457-4.371m-37.014 2.369c2.079 2.079.468 5.359-2.631 5.359-2.229 0-3.659-2.544-2.591-4.61 1.052-2.034 3.575-2.396 5.222-.749m18.326 4.307c1.634 1.323.499 4.163-1.663 4.163-1.392 0-2.356-.953-2.356-2.33 0-2.143 2.326-3.204 4.019-1.833m14.543 3.443c1.553 1.458.552 4.053-1.562 4.053-1.238 0-2.666-1.328-2.666-2.478 0-1.879 2.796-2.921 4.228-1.575m19.593 1.615c1.081 1.081.944 3.49-.257 4.523-3.124 2.687-7.482-2.007-4.453-4.798 1.293-1.191 3.364-1.07 4.71.275M63 161.667c1.503 1.502.373 4-1.809 4s-3.13-2.4-1.613-4.084c.72-.799 2.585-.753 3.422.084m-19.634 3.702c2.86 3.061-1.274 7.491-4.392 4.705-.774-.692-1.044-1.229-1.07-2.126-.089-3.149 3.393-4.794 5.462-2.579M101 168.667c1.491 1.491.374 4-1.782 4-1.366 0-2.25-.888-2.29-2.301-.061-2.126 2.555-3.217 4.072-1.699m-47.818 2.818c1.501 1.501.423 4.182-1.682 4.182-1.111 0-2.5-1.389-2.5-2.5 0-1.112 1.389-2.5 2.5-2.5.475 0 1.232.368 1.682.818M323 179.5v2.167h-5.667v-4.334H323v2.167m28 10.833v13h7.333v4h-21v-4h8v-22h-6v-4H351v13m-222.041-10.148c3.638 1.081 7.817 7.148 4.923 7.148-.431 0-1.693.095-2.804.211l-2.019.211-.716-1.402c-1.982-3.885-9.241-2.644-8.225 1.406.3 1.196 1.853 2.03 5.715 3.072 8.256 2.226 10.997 5.463 9.344 11.031-2.008 6.761-16.267 8.082-20.627 1.91-.983-1.391-2.026-3.74-1.773-3.993.384-.384 5.695-.862 5.809-.522 1.612 4.837 11.081 5.224 11.081.452 0-1.348-1.597-2.67-4.113-3.404-7.767-2.267-9.656-3.325-10.925-6.12-3.084-6.788 5.344-12.668 14.33-10m134.708 2.315v2.833h7.666v4h-7.666v12.697l.866.867c.855.854.917.864 4.334.655l3.466-.212v1.81c0 2.259.089 2.212-4.604 2.423-8.68.389-9.896-1.042-9.895-11.642v-6.569l-1.667-.097-1.667-.098-.1-1.917-.1-1.917h1.933l1.934-.001.573-1.952c1.131-3.849 1.018-3.713 3.085-3.713h1.842v2.833m-226.102.638c1.873 1.611.921 5.167-1.508 5.631-2.403.46-4.488-1.953-3.715-4.297.73-2.21 3.409-2.895 5.223-1.334m10.557.553c1.761 1.385.774 4.309-1.455 4.309s-3.217-2.924-1.455-4.309c.483-.38 1.137-.691 1.455-.691.317 0 .972.311 1.455.691m108.718 2.047c3.179 1.685 3.863 3.38 4.003 9.929l.134 6.226c.029 1.329.784 2.107 2.047 2.107 1.174 0 1.537 2.713.42 3.142-2.99 1.147-6.17.266-7.277-2.016l-.667-1.373-.88 1.242c-2.951 4.17-10.485 3.411-12.137-1.223-2.027-5.682 1.294-9.43 8.6-9.706l3.917-.148-.001-1.209c-.001-3.879-4.46-5.607-5.485-2.126l-.319 1.084h-2.911c-3.456 0-3.613-.154-2.491-2.448 1.83-3.741 8.965-5.645 13.047-3.481m32.426-.453c.304.192.404.954.334 2.542l-.1 2.267-3.167-.056c-6.159-.109-7.638 2.047-7.916 11.545l-.168 5.75h-5.582l-.007-7.75c-.006-7.095-.157-9.463-.83-13l-.238-1.25h5.662l.373 1.481c.205.815.379 1.827.386 2.25.013.711.054.693.541-.231 1.656-3.141 8.027-5.251 10.712-3.548m50.908.453c3.178 1.685 3.862 3.38 4.002 9.929l.134 6.226c.029 1.329.785 2.107 2.047 2.107 1.174 0 1.537 2.713.421 3.142-2.99 1.147-6.17.266-7.278-2.016l-.667-1.373-.879 1.242c-2.951 4.17-10.485 3.411-12.138-1.223-2.026-5.682 1.295-9.43 8.601-9.706l3.916-.148v-1.209c-.002-3.879-4.46-5.607-5.485-2.126l-.319 1.084h-2.912c-3.456 0-3.613-.154-2.49-2.448 1.83-3.741 8.965-5.645 13.047-3.481m55.666 0c3.179 1.685 3.863 3.38 4.003 9.929l.134 6.226c.029 1.329.784 2.107 2.047 2.107 1.174 0 1.537 2.713.42 3.142-2.99 1.147-6.17.266-7.277-2.016l-.667-1.373-.88 1.242c-2.951 4.17-10.485 3.411-12.137-1.223-2.027-5.682 1.294-9.43 8.6-9.706l3.917-.148-.001-1.209c-.001-3.879-4.46-5.607-5.485-2.126l-.319 1.084h-2.911c-3.456 0-3.613-.154-2.491-2.448 1.83-3.741 8.965-5.645 13.047-3.481m-91.771 4.595a416.623 416.623 0 0 1 2.751 8.5c.62 2.017 1.202 3.442 1.293 3.167.092-.275.8-2.45 1.574-4.833.773-2.384 2-6.021 2.727-8.084l1.322-3.75h2.965c1.631 0 2.966.114 2.966.253 0 .138-1.846 5.051-4.102 10.916l-4.102 10.665-3.518.094-3.519.094-4.046-10.785c-2.226-5.932-4.047-10.893-4.047-11.024 0-.131 1.375-.195 3.055-.142l3.055.096 1.626 4.833m118.931 4v9h7.333v4h-21v-4h8v-14h-6v-4H323v9m-271.878 3.358c1.111.874 1.179 2.446.153 3.538-1.457 1.551-3.942.425-3.942-1.787 0-2.171 2.051-3.118 3.789-1.751m99.836-.451c-1.731.184-2.68 1.316-2.68 3.198 0 5.255 5.969 3.703 6.611-1.719l.204-1.719-1.463.056c-.805.031-2.007.114-2.672.184m83.334 0c-1.732.184-2.681 1.316-2.681 3.198 0 5.255 5.969 3.703 6.612-1.719l.203-1.719-1.463.056c-.805.031-2.007.114-2.671.184m55.666 0c-1.731.184-2.68 1.316-2.68 3.198 0 5.255 5.969 3.703 6.611-1.719l.204-1.719-1.463.056c-.805.031-2.007.114-2.672.184m-248.932 4.401c2.458 2.458.12 6.452-3.146 5.374-3.425-1.13-2.642-6.348.953-6.348.902 0 1.471.253 2.193.974m57.724 4.95c.8.703.755 2.571-.083 3.409-1.492 1.491-4 .374-4-1.782 0-2.194 2.364-3.136 4.083-1.627m-38.333 2.46c1.266 1.496.133 3.949-1.824 3.949-1.869 0-3.256-2.375-2.176-3.728 1.116-1.4 2.918-1.499 4-.221m25.705 3.973c1.611 1.268.68 4.309-1.32 4.309-2.583 0-3.58-2.744-1.571-4.324 1.089-.856 1.787-.853 2.891.015m19.999.188c2.329 2.329-.124 6.255-3.369 5.391-1.361-.362-2.204-1.621-2.15-3.209.093-2.702 3.609-4.092 5.519-2.182m-33.606.94c1 .999 1.035 1.816.127 2.97-.921 1.171-3.012 1.247-3.79.137-1.806-2.579 1.439-5.332 3.663-3.107m-19.648 2.315c1.251 1.251 1.432 2.321.649 3.836-.945 1.826-3.671 2.144-5.116.596-2.997-3.211 1.362-7.537 4.467-4.432m36.825 6.507c.722.722.975 1.291.975 2.193 0 3.743-5.83 4.358-6.518.687-.593-3.159 3.262-5.161 5.543-2.88m-20.231.344c1.933.736 2.613 3.684 1.196 5.192-.991 1.055-2.325 1.304-3.762.704-3.947-1.649-1.437-7.417 2.566-5.896"/>
    <path fill="#6d0d43" d="M317.333 179.5v2.167H323v-4.334h-5.667v2.167m22.334-.333V181h5.666v22.667h-8v3.666H358v-3.666h-7v-26.334h-11.333v1.834m-218 .84c-9.815 1.716-10.049 12.128-.334 14.868 5.405 1.524 6.392 1.884 7.32 2.665.841.708 1.014 1.097 1.014 2.293 0 4.359-8.463 4.821-10.626.58l-.653-1.279-2.694.314c-3.067.357-3.109.422-1.872 2.863 3.43 6.769 17.388 7.165 20.667.586 2.775-5.57-.018-9.401-8.656-11.872-5.161-1.476-6.591-2.708-5.794-4.992 1.168-3.353 7.696-2.704 8.776.872.174.578.416.707 1.12.595a76.939 76.939 0 0 1 2.829-.347c2.137-.226 2.145-.248.983-2.76-1.667-3.604-6.504-5.36-12.08-4.386m137.548 2.493-.923 2.833h-3.625V189h3.286l.107 7.25c.158 10.719 2.352 12.668 12.357 10.977l1.583-.268v-1.848c0-1.487-.096-1.812-.488-1.662-1.514.581-5.38.574-6.508-.012-1.505-.781-1.719-1.991-1.596-9.025l.092-5.245 3.917-.094 3.916-.094v-3.646h-8v-5.666h-3.196l-.922 2.833m-109.767 2.847c-3.007.595-5.015 2.165-5.796 4.529-.477 1.446-.674 1.326 2.574 1.565l2.726.201.217-.987c.359-1.634 2.451-2.497 4.316-1.781.836.321 1.515 1.938 1.515 3.609V194l-1.417.012c-8.579.073-11.508 2.085-11.191 7.688.361 6.392 9.179 8.247 12.497 2.629.724-1.225 1.111-1.27 1.111-.129 0 2.319 3.558 3.823 6.917 2.923 1.256-.337 1.108-3.121-.167-3.128-1.88-.011-1.902-.087-2.092-7.232-.272-10.262-3-13.04-11.21-11.416m33.696-.034c-1.81.433-3.192 1.48-4.147 3.144l-.933 1.623-.385-1.957c-.212-1.076-.446-2.144-.522-2.373-.093-.287-.956-.417-2.761-.417h-2.625l.436 2.25c.287 1.487.439 5.218.447 11l.013 8.75h5.666v-5.447c0-9.683 1.997-12.566 8.396-12.128l2.604.179v-4.513l-1.546-.212c-1.87-.256-3.278-.226-4.643.101m49.637.034c-3.006.595-5.015 2.165-5.795 4.529-.477 1.446-.674 1.326 2.574 1.565l2.726.201.217-.987c.358-1.634 2.45-2.497 4.315-1.781.836.321 1.515 1.938 1.515 3.609V194l-1.416.012c-8.579.073-11.508 2.085-11.192 7.688.361 6.392 9.179 8.247 12.497 2.629.724-1.225 1.111-1.27 1.111-.129 0 2.319 3.559 3.823 6.917 2.923 1.257-.337 1.108-3.121-.167-3.128-1.88-.011-1.902-.087-2.091-7.232-.272-10.262-3.001-13.04-11.211-11.416m55.667 0c-3.007.595-5.015 2.165-5.796 4.529-.477 1.446-.674 1.326 2.574 1.565l2.726.201.217-.987c.359-1.634 2.451-2.497 4.316-1.781.836.321 1.515 1.938 1.515 3.609V194l-1.417.012c-8.579.073-11.508 2.085-11.191 7.688.361 6.392 9.179 8.247 12.497 2.629.724-1.225 1.111-1.27 1.111-.129 0 2.319 3.558 3.823 6.917 2.923 1.256-.337 1.108-3.121-.167-3.128-1.88-.011-1.902-.087-2.092-7.232-.272-10.262-3-13.04-11.21-11.416m-91.421 1.741c.37.965 2.208 5.877 4.086 10.916l3.415 9.163 3.332.094 3.332.094 3.615-9.427a4087.623 4087.623 0 0 1 4.238-11.024l.622-1.597-2.917.097-2.917.096-2.9 8.622c-2.77 8.238-3.282 9.576-3.254 8.517.007-.26-1.223-4.26-2.733-8.889l-2.745-8.417H196.356l.671 1.755m114.64.079V189h5.666v14.667h-8v3.666H330v-3.666h-7v-18.334h-11.333v1.834M155 198.538c0 4.193-4.933 7.1-6.617 3.901-1.612-3.063.255-5.379 4.367-5.418L155 197v1.538m83.333 0c0 4.193-4.932 7.1-6.616 3.901-1.612-3.063.255-5.379 4.366-5.418l2.25-.021v1.538m55.667 0c0 4.193-4.933 7.1-6.617 3.901-1.612-3.063.255-5.379 4.367-5.418L294 197v1.538"/>
    <path fill="#fce48c" d="M71.37 146.132c-1.728.958-2.197 3.266-.953 4.689 2.228 2.549 6.323.848 5.803-2.411-.36-2.251-2.817-3.405-4.85-2.278m18.271 3.842c-2.949 2.949 1.383 7.314 4.553 4.587 1.354-1.165 1.282-3.339-.154-4.622-1.448-1.294-3.082-1.281-4.399.035m-36.724 1.719c-1.746 1.017-1.951 4.041-.36 5.293 3.11 2.445 7.254-1.893 4.469-4.678-1.036-1.036-2.906-1.316-4.109-.615m53.25 8.904c-.367.075-.992.435-1.389.801-3.029 2.791 1.329 7.485 4.453 4.798 2.442-2.1.164-6.261-3.064-5.599m-66.398 4.073c-2.049.825-2.499 3.882-.795 5.404 3.118 2.786 7.252-1.644 4.392-4.705-1.003-1.075-2.124-1.292-3.597-.699m-6.336 18.164c-2.717 1.903-.657 6.562 2.624 5.935 2.429-.464 3.381-4.02 1.508-5.631-1.09-.937-3.024-1.08-4.132-.304m3.208 18.807c-2.476 2.476.187 6.673 3.392 5.345 3.22-1.333 2.273-6.319-1.2-6.319-.901 0-1.471.253-2.192.974m65.02 11.609c-1.845 1.664-1.218 4.738 1.091 5.353 2.212.589 4.248-.978 4.248-3.269 0-2.762-3.202-4.012-5.339-2.084m-52.698 2.583c-2.48 1.348-1.74 5.39 1.101 6.014 3.206.705 5.152-3.031 2.803-5.38-1.249-1.249-2.423-1.439-3.904-.634m36.493 6.758c-2.566 2.078-1.322 5.742 1.948 5.742 1.794 0 3.263-1.426 3.263-3.166 0-2.53-3.272-4.147-5.211-2.576m-18.67.74c-1.035.417-1.786 1.651-1.786 2.932 0 4.148 6.313 4.448 6.43.305.073-2.543-2.288-4.188-4.644-3.237"/>
    <path fill="#bc84a4" d="M72.212 156.691c-1.75 1.376-.723 3.976 1.57 3.976 2.435 0 3.161-3.141.99-4.284-1.033-.543-1.559-.48-2.56.308M86.667 160c-.852.851-.882 2.702-.057 3.448 1.41 1.277 4.057.214 4.057-1.63 0-1.966-2.648-3.17-4-1.818m-27 1.667c-.934.934-.895 2.802.074 3.481 2.414 1.691 5.284-1.423 3.154-3.423-.964-.906-2.356-.931-3.228-.058m38 7c-1.437 1.437-.378 4 1.653 4 1.229 0 2.347-1.135 2.347-2.384 0-1.949-2.612-3.005-4-1.616m-47.233 2.399c-1.683.813-1.585 3.454.157 4.248 1.982.903 3.964-1.274 2.949-3.237-.669-1.294-1.776-1.654-3.106-1.011m289.039 8.182.027 1.919 2.918.02 2.917.021-2.818-.117-2.818-.116-.127-1.823-.127-1.822.028 1.918m-76.021 3.252c-.001 1.65.055 2.367.125 1.593.07-.773.071-2.123.002-3-.069-.876-.126-.243-.127 1.407M45 184c-.899.899-.852 2.376.105 3.275 2.11 1.982 5.052-.808 3.376-3.201-.678-.968-2.547-1.008-3.481-.074m144.445 3.667c0 1.375.059 1.937.131 1.25.072-.688.072-1.813 0-2.5-.072-.688-.131-.125-.131 1.25m122.028-.419.027 1.919 2.918.02 2.917.021-2.818-.117-2.818-.116-.127-1.823-.127-1.822.028 1.918m-197.382.085c0 .825.065 1.163.144.75.08-.412.08-1.087 0-1.5-.079-.412-.144-.075-.144.75m141.326 1.906a7.397 7.397 0 0 0 1.833 0c.504-.077.092-.139-.917-.139-1.008 0-1.421.062-.916.139m8.064.19c-.091.237-.12 2.899-.064 5.917l.101 5.487.074-5.739.075-5.74 3.916-.105 3.917-.106-3.927-.071c-2.95-.054-3.968.035-4.092.357m-118.393 2.144c.507.076 1.257.074 1.667-.005.41-.079-.005-.142-.922-.139-.916.002-1.252.067-.745.144m83.333 0c.507.076 1.257.074 1.667-.005.41-.079-.005-.142-.921-.139-.917.002-1.252.067-.746.144m55.667 0c.507.076 1.257.074 1.667-.005.41-.079-.005-.142-.922-.139-.916.002-1.252.067-.745.144m-135.005 2.657c.321.084.846.084 1.167 0 .321-.084.058-.153-.583-.153-.642 0-.905.069-.584.153m83.334 0c.32.084.845.084 1.166 0 .321-.084.059-.153-.583-.153-.642 0-.904.069-.583.153m55.666 0c.321.084.846.084 1.167 0 .321-.084.058-.153-.583-.153-.642 0-.905.069-.584.153m-239.847 3.442c-1.239.974-1.25 2.673-.024 3.637 1.153.907 1.97.872 2.97-.127 2.101-2.101-.619-5.341-2.946-3.51m93.848 3.495c.004.733.072.994.152.579.079-.415.076-1.015-.007-1.333-.083-.319-.149.02-.145.754m83.333 0c.004.733.072.994.152.579.08-.415.077-1.015-.007-1.333-.083-.319-.148.02-.145.754m55.667 0c.004.733.072.994.152.579.079-.415.076-1.015-.007-1.333-.083-.319-.149.02-.145.754m-8.981 4c.002 1.1.064 1.509.139.91.074-.599.072-1.499-.004-2-.076-.501-.137-.01-.135 1.09m39.147-1.587c1.146.065 3.021.065 4.167 0s.208-.118-2.084-.118c-2.291 0-3.229.053-2.083.118m15.15-.004 3.567.113.127 1.824.127 1.824-.027-1.919-.027-1.918-3.667-.019-3.667-.018 3.567.113m12.85.004c1.146.065 3.021.065 4.167 0s.208-.118-2.084-.118c-2.291 0-3.229.053-2.083.118m15.15-.004 3.567.113.127 1.824.127 1.824-.027-1.919-.027-1.918-3.667-.019-3.667-.018 3.567.113m-87.645.33c.506.076 1.256.074 1.666-.005.41-.079-.004-.141-.921-.139-.917.003-1.252.067-.745.144m-171.422 2.761c-1.413 1.413-.332 4 1.672 4 1.115 0 2.328-1.271 2.328-2.438 0-1.188-1.09-2.229-2.333-2.229-.556 0-1.296.296-1.667.667m64.417.896c.321.084.846.084 1.167 0 .32-.084.058-.152-.584-.152-.641 0-.904.068-.583.152m83.333 0c.321.084.846.084 1.167 0 .321-.084.058-.152-.583-.152-.642 0-.905.068-.584.152m55.667 0c.321.084.846.084 1.167 0 .32-.084.058-.152-.584-.152-.641 0-.904.068-.583.152m-242.045 1.631c-.841 1.068-.853 1.22-.199 2.484.955 1.847 3.595 1.578 4.304-.439.787-2.239-2.618-3.935-4.105-2.045m26.18 4.082c-1.268 1.401-.062 4.057 1.842 4.057.882 0 2.273-1.475 2.273-2.41 0-2.031-2.766-3.138-4.115-1.647m-13.827.829c-1.463 1.558-.421 3.895 1.737 3.895 1.366 0 2.205-.866 2.205-2.276 0-2.164-2.475-3.18-3.942-1.619"/>
    <path fill="#dcbccc" d="M254.437 187.167c.001 1.1.064 1.509.138.91.074-.599.073-1.499-.003-2-.077-.501-.137-.01-.135 1.09m-69.516 2.735c.414.08 1.014.077 1.333-.006.319-.084-.021-.149-.754-.145-.733.003-.994.072-.579.151m72.874 7.431c0 2.292.053 3.23.118 2.084a43.873 43.873 0 0 0 0-4.167c-.065-1.146-.118-.208-.118 2.083m-94.033 8.167c.003.917.067 1.252.144.745.076-.506.074-1.256-.005-1.666-.079-.41-.141.004-.139.921m83.333 0c.003.917.068 1.252.144.745.077-.506.075-1.256-.004-1.666-.079-.41-.142.004-.14.921m55.667 0c.003.917.067 1.252.144.745.076-.506.074-1.256-.005-1.666-.079-.41-.141.004-.139.921"/>
  </g>
</svg>
