<?xml version="1.0" standalone="no"?>
<!DOCTYPE svg PUBLIC "-//W3C//DTD SVG 20010904//EN"
 "http://www.w3.org/TR/2001/REC-SVG-20010904/DTD/svg10.dtd">
<svg version="1.0" xmlns="http://www.w3.org/2000/svg"
 width="1200.000000pt" height="1200.000000pt" viewBox="0 0 1200.000000 1200.000000"
 preserveAspectRatio="xMidYMid meet">

<g transform="translate(0.000000,1200.000000) scale(0.100000,-0.100000)"
fill="#000000" stroke="none">
<path d="M2165 7295 c-14 -13 -25 -35 -25 -48 0 -33 35 -67 70 -67 65 0 94 79
44 119 -35 27 -59 26 -89 -4z"/>
<path d="M2615 7208 c-27 -16 -35 -28 -35 -60 0 -36 32 -68 69 -68 57 0 88 76
48 117 -19 18 -60 24 -82 11z"/>
<path d="M1805 7158 c-27 -15 -35 -28 -35 -60 0 -35 32 -68 65 -68 31 0 75 41
75 70 0 26 -43 70 -67 70 -10 0 -27 -6 -38 -12z"/>
<path d="M2930 6940 c-43 -43 -7 -120 56 -120 25 0 64 43 64 70 0 10 -9 29
-21 44 -25 32 -70 35 -99 6z"/>
<path d="M1525 6870 c-73 -27 -57 -130 20 -130 50 0 76 38 62 92 -8 30 -51 49
-82 38z"/>
<path d="M9520 6615 l0 -65 85 0 85 0 0 65 0 65 -85 0 -85 0 0 -65z"/>
<path d="M10190 6625 l0 -55 85 0 85 0 0 -340 0 -340 -120 0 -120 0 0 -55 0
-55 310 0 310 0 0 55 0 55 -105 0 -105 0 0 395 0 395 -170 0 -170 0 0 -55z"/>
<path d="M3627 6599 c-60 -14 -134 -56 -161 -92 -69 -90 -48 -229 45 -297 40
-28 88 -47 242 -91 96 -27 137 -61 137 -112 0 -52 -31 -83 -95 -98 -103 -23
-213 23 -231 98 -6 21 -11 24 -38 19 -17 -3 -55 -8 -83 -12 -36 -4 -53 -11
-53 -21 0 -27 29 -81 64 -120 130 -144 473 -133 573 19 39 57 45 158 14 222
-37 76 -99 112 -280 161 -122 33 -161 60 -161 110 0 18 3 41 6 50 11 27 60 45
123 45 49 0 65 -4 89 -25 16 -13 35 -38 42 -55 12 -29 14 -30 64 -25 118 13
118 14 111 43 -12 50 -60 116 -105 144 -71 44 -205 60 -303 37z"/>
<path d="M7774 6525 l-26 -85 -54 0 -54 0 0 -54 0 -55 48 -3 47 -3 5 -215 c6
-247 11 -266 91 -310 39 -22 56 -25 144 -25 55 0 121 4 148 8 l47 8 0 55 0 56
-37 -6 c-40 -6 -97 -9 -150 -7 -19 1 -42 10 -53 21 -19 19 -20 33 -20 220 l0
200 115 0 115 0 0 55 0 55 -115 0 -115 0 0 85 0 85 -55 0 -54 0 -27 -85z"/>
<path d="M1350 6478 c-11 -12 -20 -32 -20 -45 0 -30 42 -73 70 -73 29 0 70 44
70 75 0 58 -79 87 -120 43z"/>
<path d="M4458 6436 c-60 -16 -113 -57 -138 -106 -31 -61 -28 -66 41 -74 99
-10 106 -9 113 19 16 65 90 86 142 42 22 -19 28 -34 32 -79 l4 -55 -108 -6
c-156 -8 -223 -37 -258 -112 -22 -46 -23 -153 -2 -193 31 -60 105 -102 181
-102 62 0 109 21 158 71 26 27 49 49 51 49 2 0 6 -13 9 -28 11 -56 38 -75 110
-80 37 -2 78 -1 92 2 22 6 25 12 25 51 0 42 -1 44 -32 47 -51 5 -58 30 -58
218 0 91 -5 183 -11 205 -32 113 -193 174 -351 131z m192 -386 c0 -54 -21
-100 -59 -133 -66 -55 -151 -22 -151 59 0 82 40 113 148 114 l62 0 0 -40z"/>
<path d="M5480 6438 c-52 -14 -94 -50 -115 -99 l-20 -43 -15 70 -15 69 -83 3
c-76 3 -83 1 -78 -15 19 -67 26 -168 26 -390 l0 -253 84 0 84 0 4 183 c3 180
3 182 33 236 18 32 46 64 69 80 36 24 48 26 133 25 l93 -1 0 67 0 68 -31 6
c-45 9 -128 6 -169 -6z"/>
<path d="M6958 6436 c-60 -16 -113 -57 -138 -106 -31 -61 -28 -66 41 -74 99
-10 106 -9 113 19 16 65 90 86 142 42 22 -19 28 -34 32 -79 l4 -55 -108 -6
c-156 -8 -223 -37 -258 -112 -22 -46 -23 -153 -2 -193 31 -60 105 -102 181
-102 62 0 109 21 158 71 26 27 49 49 51 49 2 0 6 -13 9 -28 11 -56 38 -75 110
-80 37 -2 78 -1 92 2 22 6 25 12 25 51 0 42 -1 44 -32 47 -51 5 -58 30 -58
218 0 91 -5 183 -11 205 -32 113 -193 174 -351 131z m192 -386 c0 -54 -21
-100 -59 -133 -66 -55 -151 -22 -151 59 0 82 40 113 148 114 l62 0 0 -40z"/>
<path d="M8628 6436 c-60 -16 -113 -57 -138 -106 -31 -61 -28 -66 41 -74 99
-10 106 -9 113 19 16 65 90 86 142 42 22 -19 28 -34 32 -79 l4 -55 -108 -6
c-156 -8 -223 -37 -258 -112 -22 -46 -23 -153 -2 -193 31 -60 105 -102 181
-102 62 0 109 21 158 71 26 27 49 49 51 49 2 0 6 -13 9 -28 11 -56 38 -75 110
-80 37 -2 78 -1 92 2 22 6 25 12 25 51 0 42 -1 44 -32 47 -51 5 -58 30 -58
218 0 91 -5 183 -11 205 -32 113 -193 174 -351 131z m192 -386 c0 -54 -21
-100 -59 -133 -66 -55 -151 -22 -151 59 0 82 40 113 148 114 l62 0 0 -40z"/>
<path d="M5892 6432 c2 -5 57 -153 123 -330 l120 -322 101 0 c72 0 103 4 107
13 2 6 57 149 122 317 65 168 120 311 122 318 4 9 -17 12 -84 12 l-89 0 -83
-247 c-46 -137 -85 -255 -88 -263 -4 -10 -9 -2 -16 20 -5 19 -43 137 -84 263
l-74 227 -90 0 c-50 0 -89 -4 -87 -8z"/>
<path d="M9350 6385 l0 -55 85 0 85 0 0 -220 0 -220 -120 0 -120 0 0 -55 0
-55 310 0 310 0 0 55 0 55 -105 0 -105 0 0 275 0 275 -170 0 -170 0 0 -55z"/>
<path d="M1473 6082 c-13 -2 -30 -13 -38 -25 -44 -63 17 -134 87 -100 71 34
30 138 -49 125z"/>
<path d="M2862 5797 c-12 -13 -22 -33 -22 -46 0 -28 42 -71 70 -71 29 0 70 44
70 75 0 59 -77 86 -118 42z"/>
<path d="M1707 5733 c-50 -56 6 -140 75 -114 14 5 29 15 33 21 13 21 8 71 -10
90 -23 25 -76 26 -98 3z"/>
<path d="M2490 5600 c-44 -44 -11 -114 52 -112 90 2 87 132 -2 132 -17 0 -39
-9 -50 -20z"/>
<path d="M2075 5575 c-30 -30 -31 -54 -4 -89 39 -49 119 -22 119 42 0 33 -8
45 -37 61 -33 17 -51 14 -78 -14z"/>
</g>
</svg>
